<?xml version="1.0" standalone="no"?>
<!DOCTYPE svg PUBLIC "-//W3C//DTD SVG 20010904//EN"
 "http://www.w3.org/TR/2001/REC-SVG-20010904/DTD/svg10.dtd">
<svg version="1.0" xmlns="http://www.w3.org/2000/svg"
 width="480.000000pt" height="480.000000pt" viewBox="0 0 480.000000 480.000000"
 preserveAspectRatio="xMidYMid meet">
<metadata>
Created by potrace 1.14, written by Peter Selinger 2001-2017
</metadata>
<g transform="translate(0.000000,480.000000) scale(0.100000,-0.100000)"
fill="#000000" stroke="none">
<path d="M0 2400 l0 -2400 2400 0 2400 0 0 2400 0 2400 -2400 0 -2400 0 0
-2400z m1500 1503 c25 -11 59 -32 74 -46 31 -29 41 -34 30 -14 -6 9 -5 9 7 0
8 -6 34 -19 59 -29 127 -51 187 -102 561 -474 350 -349 501 -470 586 -470 18
0 33 5 33 10 0 6 6 10 14 10 8 0 25 15 38 33 24 33 70 127 63 127 -3 0 0 12 6
28 6 15 17 86 25 157 31 300 52 402 94 470 28 46 115 109 140 102 11 -3 20 0
20 5 0 25 45 98 64 105 25 8 711 6 738 -3 10 -3 21 -17 25 -32 4 -15 7 -660 7
-1435 0 -1267 -2 -1409 -16 -1423 -13 -14 -62 -16 -354 -19 -187 -2 -352 -1
-368 2 -16 3 -48 25 -72 48 -24 23 -44 38 -44 34 0 -17 -109 25 -172 67 -85
56 -192 151 -445 400 -414 408 -497 474 -590 474 -67 0 -143 -69 -143 -130 0
-12 -4 -30 -10 -40 -5 -10 -12 -40 -16 -67 -3 -26 -10 -79 -15 -118 -5 -38
-14 -117 -19 -175 -6 -58 -15 -115 -20 -128 -6 -13 -10 -33 -10 -46 0 -12 -7
-31 -15 -42 -8 -10 -15 -25 -15 -32 -1 -48 -104 -144 -155 -144 -14 0 -25 -6
-25 -13 0 -6 -17 -30 -38 -52 l-37 -41 -355 3 c-195 1 -363 6 -372 10 -10 4
-20 16 -24 27 -3 11 -6 653 -7 1427 0 1064 2 1411 11 1428 15 27 26 28 407 27
269 0 293 -2 335 -21z"/>
</g>
</svg>
